<?xml version="1.0" encoding="UTF-8" standalone="no"?>
<svg
   xmlns:dc="http://purl.org/dc/elements/1.1/"
   xmlns:cc="http://creativecommons.org/ns#"
   xmlns:rdf="http://www.w3.org/1999/02/22-rdf-syntax-ns#"
   xmlns:svg="http://www.w3.org/2000/svg"
   xmlns="http://www.w3.org/2000/svg"
   xmlns:xlink="http://www.w3.org/1999/xlink"
   xmlns:sodipodi="http://sodipodi.sourceforge.net/DTD/sodipodi-0.dtd"
   xmlns:inkscape="http://www.inkscape.org/namespaces/inkscape"
   inkscape:version="1.0 (4035a4f, 2020-05-01)"
   sodipodi:docname="logo_dark.svg"
   id="svg3544"
   version="1.1"
   viewBox="0 0 264 136">
  <metadata
     id="metadata3548">
    <rdf:RDF>
      <cc:Work
         rdf:about="">
        <dc:format>image/svg+xml</dc:format>
        <dc:type
           rdf:resource="http://purl.org/dc/dcmitype/StillImage" />
      </cc:Work>
    </rdf:RDF>
  </metadata>
  <sodipodi:namedview
     inkscape:current-layer="svg3544"
     inkscape:window-maximized="0"
     inkscape:window-y="23"
     inkscape:window-x="0"
     inkscape:cy="68"
     inkscape:cx="132"
     inkscape:zoom="4.6893939"
     showgrid="false"
     id="namedview3546"
     inkscape:window-height="1310"
     inkscape:window-width="2560"
     inkscape:pageshadow="2"
     inkscape:pageopacity="0"
     guidetolerance="10"
     gridtolerance="10"
     objecttolerance="10"
     borderopacity="1"
     bordercolor="#666666"
     pagecolor="#ffffff" />
  <defs
     id="defs3540">
    <path
       d="M26.737 79.68h9.95v43.388h-9.95v-17.531H9.883v17.531H0V79.68h9.883v17.261h16.854v-17.26zm32.083 44.268c-9.678 0-16.175-6.565-16.175-16.244 0-9.952 6.7-16.245 15.972-16.245 9.274 0 15.434 6.158 15.434 14.755 0 1.828-.204 3.25-.406 4.13h-21.66c.134 3.587 2.842 5.955 6.835 5.955 2.98 0 5.28-1.219 6.093-3.046h9.206c-1.287 6.43-7.447 10.695-15.299 10.695zm5.551-19.765c-.135-3.113-2.64-5.008-6.091-5.008-3.453 0-5.957 1.895-6.16 5.008h12.25zm30.121-12.725c8.867 0 15.162 5.212 15.703 13.064h-9.61c-.746-3.181-3.25-4.671-6.229-4.671-4.061 0-6.769 3.046-6.769 7.92 0 4.738 2.64 7.852 6.77 7.852 3.317 0 5.685-1.896 6.228-4.603h9.61c-.677 7.716-6.972 12.928-15.703 12.928-9.883 0-16.515-6.498-16.515-16.178 0-9.815 6.7-16.312 16.515-16.312zm93.204 1.084v42.97h-9.408v-15.084c-2.302 2.369-5.821 3.588-9.68 3.52-8.798-.135-14.756-6.633-14.756-16.245 0-9.748 6.228-16.245 15.096-16.245 4.4 0 8.258 1.76 10.356 4.602l.54-3.518h7.852zm-9.475 15.228c0-4.67-3.046-7.716-7.447-7.716-4.4 0-7.243 3.114-7.243 7.716 0 4.536 2.843 7.717 7.243 7.717s7.447-3.046 7.447-7.717zm-44.067-15.229v7.784h-5.684v22.743h-9.475v-22.743h-5.686v-7.784h5.686v-7.92h9.475v7.92h5.684zm4.47 7.784v-7.784h9.475v30.527h-9.475v-22.743zm4.738-12.59c-3.655 0-6.296-2.707-6.296-6.024 0-3.384 2.708-6.024 6.296-6.024 3.52 0 6.295 2.572 6.295 6.024 0 3.317-2.776 6.025-6.295 6.025zm22.105-35.987c-12.276 0-22.228-9.953-22.228-22.23 0-12.276 9.952-22.23 22.228-22.23 12.277 0 22.23 9.954 22.23 22.23 0 12.277-9.953 22.23-22.23 22.23zM107.528 38.16a8.644 8.644 0 1 1 8.643-8.643 8.643 8.643 0 0 1-8.643 8.643zm22.177-19.875a8.644 8.644 0 1 1 0-17.288 8.644 8.644 0 0 1 0 17.288zm0 39.75a8.644 8.644 0 1 1 0-17.288 8.644 8.644 0 0 1 0 17.289zM76.139 33.84a4.321 4.321 0 1 1 0-8.643 4.321 4.321 0 1 1 0 8.643zm13.534-19.875a4.321 4.321 0 1 1-.001-8.643 4.321 4.321 0 0 1 0 8.643zm0 39.75a4.322 4.322 0 1 1 0-8.643 4.322 4.322 0 0 1 0 8.643zM223.67 79.72h9.526l16.08 43.306h-10.472l-3.175-8.919h-14.594l-3.243 8.919h-10.269L223.67 79.72zm9.12 26.145l-1.688-4.662c-1.014-2.972-2.568-8.173-2.636-8.173.068 0-1.689 5.201-2.837 8.173l-1.757 4.662h8.919zm21.346 17.16V79.72H264v43.306h-9.863zm-61.977-5.55c0-3.045 2.234-5.617 5.753-5.617 3.386 0 5.753 2.572 5.753 5.618 0 2.91-2.367 5.55-5.753 5.55-3.519 0-5.753-2.64-5.753-5.55z"
       id="a" />
  </defs>
  <use
     style="fill:#354178;fill-opacity:1"
     height="100%"
     width="100%"
     y="0"
     x="0"
     id="use3542"
     xlink:href="#a"
     fill-rule="evenodd"
     fill="#d9dcf9" />
</svg>
